<svg xmlns="http://www.w3.org/2000/svg" version="1.1" xmlns:xlink="http://www.w3.org/1999/xlink" xmlns:svgjs="http://svgjs.dev/svgjs" width="1500" height="655" viewBox="0 0 1500 655"><g transform="matrix(1,0,0,1,-0.9090909090909918,-0.21859526665934936)"><svg viewBox="0 0 396 173" data-background-color="#fffbef" preserveAspectRatio="xMidYMid meet" height="655" width="1500" xmlns="http://www.w3.org/2000/svg" xmlns:xlink="http://www.w3.org/1999/xlink"><g id="tight-bounds" transform="matrix(1,0,0,1,0.2400000000000091,0.057735849056598454)"><svg viewBox="0 0 395.52 172.8845283018868" height="172.8845283018868" width="395.52"><g><svg viewBox="0 0 395.52 172.8845283018868" height="172.8845283018868" width="395.52"><g><svg viewBox="0 0 395.52 172.8845283018868" height="172.8845283018868" width="395.52"><g id="textblocktransform"><svg viewBox="0 0 395.52 172.8845283018868" height="172.8845283018868" width="395.52" id="textblock"><g><svg viewBox="0 0 395.52 172.8845283018868" height="172.8845283018868" width="395.52"><g transform="matrix(1,0,0,1,0,0)"><svg width="395.52" viewBox="3 -34.5 79.49 34.75" height="172.8845283018868" data-palette-color="#493b31"><path d="M15.35 0L3.5 0Q3 0 3-0.5L3-0.5 3-34Q3-34.5 3.5-34.5L3.5-34.5Q4.05-34.5 4.05-34L4.05-34 4.05-1.05 15.35-1.05Q15.85-1.05 15.85-0.55L15.85-0.55Q15.85 0 15.35 0L15.35 0ZM24.15 0.25L24.15 0.25Q22.45 0.25 21.12-1.33 19.8-2.9 19.07-5.65 18.35-8.4 18.35-11.95L18.35-11.95Q18.35-15.5 19.07-18.25 19.8-21 21.07-22.55 22.35-24.1 24.05-24.1L24.05-24.1Q25.6-24.1 26.72-22.83 27.85-21.55 28.47-19.33 29.1-17.1 29.1-14.25L29.1-14.25Q29.1-13.45 28.3-13.45L28.3-13.45 19.5-13.45Q19.45-12.7 19.45-11.95L19.45-11.95Q19.45-8.75 20.05-6.23 20.65-3.7 21.72-2.25 22.8-0.8 24.15-0.8L24.15-0.8Q25.45-0.8 26.37-1.9 27.3-3 27.85-4.8L27.85-4.8Q28-5.25 28.4-5.25L28.4-5.25Q28.75-5.25 28.85-4.98 28.95-4.7 28.85-4.4L28.85-4.4Q28.15-2.25 27-1 25.85 0.25 24.15 0.25ZM24.05-23.05L24.05-23.05Q22.35-23.05 21.12-20.65 19.9-18.25 19.55-14.5L19.55-14.5 28.05-14.5Q27.95-18.15 26.87-20.6 25.8-23.05 24.05-23.05ZM38.8 0.25L38.8 0.25Q37.09 0.25 35.82-1.3 34.55-2.85 33.82-5.6 33.09-8.35 33.09-11.95L33.09-11.95Q33.09-15.55 33.82-18.28 34.55-21 35.82-22.55 37.09-24.1 38.8-24.1L38.8-24.1Q40.39-24.1 41.55-22.85 42.7-21.6 43.39-19.5L43.39-19.5Q43.49-19.2 43.39-18.93 43.3-18.65 42.95-18.65L42.95-18.65Q42.55-18.65 42.39-19.1L42.39-19.1Q41.84-20.85 40.95-21.95 40.05-23.05 38.8-23.05L38.8-23.05Q37.49-23.05 36.45-21.6 35.39-20.15 34.8-17.65 34.2-15.15 34.2-11.95L34.2-11.95Q34.2-8.75 34.8-6.23 35.39-3.7 36.45-2.25 37.49-0.8 38.8-0.8L38.8-0.8Q40.05-0.8 40.95-1.9 41.84-3 42.39-4.8L42.39-4.8Q42.55-5.25 42.95-5.25L42.95-5.25Q43.3-5.25 43.39-4.98 43.49-4.7 43.39-4.4L43.39-4.4Q42.7-2.25 41.55-1 40.39 0.25 38.8 0.25ZM52.74 0L52.74 0Q50.49 0 49.49-1 48.49-2 48.49-4.5L48.49-4.5 48.49-22.3 45.09-22.3Q44.59-22.3 44.59-22.85L44.59-22.85Q44.59-23.35 45.09-23.35L45.09-23.35 48.49-23.35 48.49-29.65Q48.49-30.15 49.04-30.15L49.04-30.15Q49.54-30.15 49.54-29.65L49.54-29.65 49.54-23.35 52.94-23.35Q53.44-23.35 53.44-22.85L53.44-22.85Q53.44-22.3 52.94-22.3L52.94-22.3 49.54-22.3 49.54-4.55Q49.54-2.55 50.24-1.8 50.94-1.05 52.74-1.05L52.74-1.05Q53.29-1.05 53.29-0.55L53.29-0.55Q53.29 0 52.74 0ZM61.89 0.25L61.89 0.25Q60.19 0.25 58.92-1.3 57.64-2.85 56.92-5.6 56.19-8.35 56.19-11.95L56.19-11.95Q56.19-15.55 56.92-18.28 57.64-21 58.92-22.55 60.19-24.1 61.89-24.1L61.89-24.1Q63.59-24.1 64.87-22.53 66.14-20.95 66.89-18.23 67.64-15.5 67.64-11.95L67.64-11.95Q67.64-8.4 66.89-5.65 66.14-2.9 64.87-1.33 63.59 0.25 61.89 0.25ZM61.89-0.8L61.89-0.8Q63.24-0.8 64.29-2.25 65.34-3.7 65.94-6.23 66.54-8.75 66.54-11.95L66.54-11.95Q66.54-15.15 65.94-17.65 65.34-20.15 64.29-21.6 63.24-23.05 61.89-23.05L61.89-23.05Q60.59-23.05 59.54-21.6 58.49-20.15 57.89-17.65 57.29-15.15 57.29-11.95L57.29-11.95Q57.29-8.75 57.89-6.23 58.49-3.7 59.54-2.25 60.59-0.8 61.89-0.8ZM73.14 0L73.14 0Q72.64 0 72.64-0.5L72.64-0.5 72.64-23.35Q72.64-23.85 73.14-23.85L73.14-23.85Q73.69-23.85 73.69-23.35L73.69-23.35 73.69-21.35Q74.69-22.85 75.84-23.48 76.99-24.1 78.34-24.1L78.34-24.1Q82.49-24.1 82.49-18.2L82.49-18.2Q82.49-17.6 81.99-17.6L81.99-17.6Q81.44-17.6 81.44-18.2L81.44-18.2Q81.44-20.9 80.64-21.98 79.84-23.05 78.34-23.05L78.34-23.05Q76.79-23.05 75.61-22.13 74.44-21.2 73.69-19.8L73.69-19.8 73.69-0.5Q73.69 0 73.14 0Z" opacity="1" transform="matrix(1,0,0,1,0,0)" fill="#493b31" class="wordmark-text-0" data-fill-palette-color="primary" id="text-0"></path></svg></g></svg></g></svg></g></svg></g></svg></g><defs></defs></svg><rect width="395.52" height="172.8845283018868" fill="none" stroke="none" visibility="hidden"></rect></g></svg></g></svg>