<svg xmlns="http://www.w3.org/2000/svg" version="1.1" xmlns:xlink="http://www.w3.org/1999/xlink" xmlns:svgjs="http://svgjs.dev/svgjs" width="1500" height="1500" viewBox="0 0 1500 1500"><rect width="1500" height="1500" fill="#ffffff"></rect><g transform="matrix(0.6666666666666666,0,0,0.6666666666666666,249.39393939393938,543.0993194607554)"><svg viewBox="0 0 396 163" data-background-color="#fffbef" preserveAspectRatio="xMidYMid meet" height="617" width="1500" xmlns="http://www.w3.org/2000/svg" xmlns:xlink="http://www.w3.org/1999/xlink"><g id="tight-bounds" transform="matrix(1,0,0,1,0.2400000000000091,0.489005497318189)"><svg viewBox="0 0 395.52 162.02198900536362" height="162.02198900536362" width="395.52"><g><svg viewBox="0 0 583.2552573404557 238.92641811320755" height="162.02198900536362" width="395.52"><g transform="matrix(1,0,0,1,187.7352573404558,33.02094490566037)"><svg viewBox="0 0 395.52 172.8845283018868" height="172.8845283018868" width="395.52"><g id="textblocktransform"><svg viewBox="0 0 395.52 172.8845283018868" height="172.8845283018868" width="395.52" id="textblock"><g><svg viewBox="0 0 395.52 172.8845283018868" height="172.8845283018868" width="395.52"><g transform="matrix(1,0,0,1,0,0)"><svg width="395.52" viewBox="3 -34.5 79.49 34.75" height="172.8845283018868" data-palette-color="#493b31"><path d="M15.35 0L3.5 0Q3 0 3-0.5L3-0.5 3-34Q3-34.5 3.5-34.5L3.5-34.5Q4.05-34.5 4.05-34L4.05-34 4.05-1.05 15.35-1.05Q15.85-1.05 15.85-0.55L15.85-0.55Q15.85 0 15.35 0L15.35 0ZM24.15 0.25L24.15 0.25Q22.45 0.25 21.12-1.33 19.8-2.9 19.07-5.65 18.35-8.4 18.35-11.95L18.35-11.95Q18.35-15.5 19.07-18.25 19.8-21 21.07-22.55 22.35-24.1 24.05-24.1L24.05-24.1Q25.6-24.1 26.72-22.83 27.85-21.55 28.47-19.33 29.1-17.1 29.1-14.25L29.1-14.25Q29.1-13.45 28.3-13.45L28.3-13.45 19.5-13.45Q19.45-12.7 19.45-11.95L19.45-11.95Q19.45-8.75 20.05-6.23 20.65-3.7 21.72-2.25 22.8-0.8 24.15-0.8L24.15-0.8Q25.45-0.8 26.37-1.9 27.3-3 27.85-4.8L27.85-4.8Q28-5.25 28.4-5.25L28.4-5.25Q28.75-5.25 28.85-4.98 28.95-4.7 28.85-4.4L28.85-4.4Q28.15-2.25 27-1 25.85 0.25 24.15 0.25ZM24.05-23.05L24.05-23.05Q22.35-23.05 21.12-20.65 19.9-18.25 19.55-14.5L19.55-14.5 28.05-14.5Q27.95-18.15 26.87-20.6 25.8-23.05 24.05-23.05ZM38.8 0.25L38.8 0.25Q37.09 0.25 35.82-1.3 34.55-2.85 33.82-5.6 33.09-8.35 33.09-11.95L33.09-11.95Q33.09-15.55 33.82-18.28 34.55-21 35.82-22.55 37.09-24.1 38.8-24.1L38.8-24.1Q40.39-24.1 41.55-22.85 42.7-21.6 43.39-19.5L43.39-19.5Q43.49-19.2 43.39-18.93 43.3-18.65 42.95-18.65L42.95-18.65Q42.55-18.65 42.39-19.1L42.39-19.1Q41.84-20.85 40.95-21.95 40.05-23.05 38.8-23.05L38.8-23.05Q37.49-23.05 36.45-21.6 35.39-20.15 34.8-17.65 34.2-15.15 34.2-11.95L34.2-11.95Q34.2-8.75 34.8-6.23 35.39-3.7 36.45-2.25 37.49-0.8 38.8-0.8L38.8-0.8Q40.05-0.8 40.95-1.9 41.84-3 42.39-4.8L42.39-4.8Q42.55-5.25 42.95-5.25L42.95-5.25Q43.3-5.25 43.39-4.98 43.49-4.7 43.39-4.4L43.39-4.4Q42.7-2.25 41.55-1 40.39 0.25 38.8 0.25ZM52.74 0L52.74 0Q50.49 0 49.49-1 48.49-2 48.49-4.5L48.49-4.5 48.49-22.3 45.09-22.3Q44.59-22.3 44.59-22.85L44.59-22.85Q44.59-23.35 45.09-23.35L45.09-23.35 48.49-23.35 48.49-29.65Q48.49-30.15 49.04-30.15L49.04-30.15Q49.54-30.15 49.54-29.65L49.54-29.65 49.54-23.35 52.94-23.35Q53.44-23.35 53.44-22.85L53.44-22.85Q53.44-22.3 52.94-22.3L52.94-22.3 49.54-22.3 49.54-4.55Q49.54-2.55 50.24-1.8 50.94-1.05 52.74-1.05L52.74-1.05Q53.29-1.05 53.29-0.55L53.29-0.55Q53.29 0 52.74 0ZM61.89 0.25L61.89 0.25Q60.19 0.25 58.92-1.3 57.64-2.85 56.92-5.6 56.19-8.35 56.19-11.95L56.19-11.95Q56.19-15.55 56.92-18.28 57.64-21 58.92-22.55 60.19-24.1 61.89-24.1L61.89-24.1Q63.59-24.1 64.87-22.53 66.14-20.95 66.89-18.23 67.64-15.5 67.64-11.95L67.64-11.95Q67.64-8.4 66.89-5.65 66.14-2.9 64.87-1.33 63.59 0.25 61.89 0.25ZM61.89-0.8L61.89-0.8Q63.24-0.8 64.29-2.25 65.34-3.7 65.94-6.23 66.54-8.75 66.54-11.95L66.54-11.95Q66.54-15.15 65.94-17.65 65.34-20.15 64.29-21.6 63.24-23.05 61.89-23.05L61.89-23.05Q60.59-23.05 59.54-21.6 58.49-20.15 57.89-17.65 57.29-15.15 57.29-11.95L57.29-11.95Q57.29-8.75 57.89-6.23 58.49-3.7 59.54-2.25 60.59-0.8 61.89-0.8ZM73.14 0L73.14 0Q72.64 0 72.64-0.5L72.64-0.5 72.64-23.35Q72.64-23.85 73.14-23.85L73.14-23.85Q73.69-23.85 73.69-23.35L73.69-23.35 73.69-21.35Q74.69-22.85 75.84-23.48 76.99-24.1 78.34-24.1L78.34-24.1Q82.49-24.1 82.49-18.2L82.49-18.2Q82.49-17.6 81.99-17.6L81.99-17.6Q81.44-17.6 81.44-18.2L81.44-18.2Q81.44-20.9 80.64-21.98 79.84-23.05 78.34-23.05L78.34-23.05Q76.79-23.05 75.61-22.13 74.44-21.2 73.69-19.8L73.69-19.8 73.69-0.5Q73.69 0 73.14 0Z" opacity="1" transform="matrix(1,0,0,1,0,0)" fill="#000000" class="wordmark-text-0" data-fill-palette-color="primary" id="text-0"></path></svg></g></svg></g></svg></g></svg></g><g><svg viewBox="0 0 146.92136943705958 238.92641811320755" height="238.92641811320755" width="146.92136943705958"><g><svg xmlns="http://www.w3.org/2000/svg" xmlns:xlink="http://www.w3.org/1999/xlink" version="1.1" x="0" y="0" viewBox="24.386 2.245 59.03569050334826 96.005" enable-background="new 0 0 100 100" xml:space="preserve" height="238.92641811320755" width="146.92136943705958" class="icon-icon-0" data-fill-palette-color="accent" id="icon-0"><path d="M82.971 16.664C82.83 16.644 79.51 16.173 76.917 16.173 75.203 16.173 74.451 16.38 74.064 16.611L74.04 16.605 54.636 11.213A0.5 0.5 0 0 0 54.065 11.452L49.44 19.786C49.353 18.993 49.192 18.158 48.907 17.545A0.8 0.8 0 0 0 49.299 17.4C50.65 16.398 50.969 15.523 51.278 14.677 51.338 14.516 51.396 14.354 51.465 14.189 52.245 12.286 52.483 11.147 52.501 11.037L52.768 7.509A0.6 0.6 0 0 0 52.8 7.332C52.8 7.297 52.786 7.266 52.779 7.233 52.777 6.648 52.716 4.633 51.966 3.879A1.07 1.07 0 0 0 51.467 3.604C50.675 2.776 49.16 2.245 47.529 2.245 45.543 2.245 43.242 3.078 42.277 5.315A4.5 4.5 0 0 0 41.992 6.111C41.667 7.408 41.437 8.527 41.251 9.424 40.934 10.961 40.66 12.287 40.296 12.287 39.234 12.287 38.327 13.586 37.897 14.323 37.202 14.024 35.807 13.5 34.553 13.5 33.127 13.5 32.489 14.178 32.204 14.748 31.992 15.172 31.651 15.612 31.257 16.121 29.791 18.013 27.575 20.872 29.363 27.129 31.222 33.637 31.847 35.421 32 35.828V37.847C30.261 43.677 27.541 53.535 28.671 54.664 29.692 55.685 33.82 56.609 35.236 56.901 35.153 58.526 34.801 64.33 33.912 66.108 32.743 68.449 27 89.247 27 90.373V91.329C26.426 92.296 24.386 95.811 24.386 96.93 24.386 97.569 24.814 98.25 26.016 98.25 26.821 98.25 27.884 97.939 29.009 97.377 30.524 96.62 30.975 96.309 31.04 95.988L32.74 94.131C33.31 94.032 33.989 93.579 33.989 92.559 33.989 91.953 35.692 88.311 37.341 85.136L43.962 72.023A0.5 0.5 0 0 0 44.008 71.882C44.054 71.612 45.139 65.27 45.139 64.149 45.139 63.713 45.355 62.817 45.604 61.937L46.33 66.259C46.066 66.809 45.261 68.57 45.261 69.612 45.261 69.911 45.154 70.578 45.019 71.423 44.702 73.406 44.17 76.727 44.17 80.54 44.17 84.262 43.649 86.695 43.338 88.149 43.187 88.853 43.078 89.362 43.078 89.753 43.078 90.88 43.491 93.007 43.509 93.097A0.5 0.5 0 0 0 43.842 93.476L45 93.86V94.744A0.5 0.5 0 0 0 45.358 95.223C45.511 95.268 49.138 96.337 51.37 96.337 52.065 96.337 52.905 96.458 53.718 96.576 54.556 96.697 55.423 96.822 56.174 96.822 57.131 96.822 57.778 96.621 58.209 96.19 58.656 95.743 58.69 95.29 58.64 94.989 58.473 93.979 57.104 93.279 56.951 93.204L52.562 91.018A0.4 0.4 0 0 0 52.364 90.966C52.147 90.942 51.738 90.558 51.738 89.279 51.738 88.039 52.493 83.342 53.099 79.569 53.622 76.314 53.918 74.45 53.918 73.98 53.918 73.496 54.515 71.105 54.995 69.184 55.683 66.427 56.101 64.712 56.101 64.146 56.101 62.786 57.151 56.578 57.873 55.898A0.66 0.66 0 0 0 58.305 55.652 0.8 0.8 0 0 0 58.428 55.415C58.439 55.383 58.446 55.34 58.455 55.305 58.476 55.231 58.496 55.157 58.511 55.066 58.519 55.015 58.524 54.954 58.53 54.897 58.541 54.807 58.551 54.718 58.557 54.618 58.561 54.55 58.562 54.473 58.564 54.401 58.567 54.297 58.571 54.193 58.57 54.079A16 16 0 0 0 58.507 52.778L58.479 52.464 58.437 52.036 58.401 51.704C58.383 51.555 58.366 51.403 58.346 51.25 58.332 51.135 58.318 51.019 58.302 50.901L58.238 50.431 58.187 50.071 58.115 49.587 58.059 49.226 57.977 48.716C57.958 48.604 57.941 48.493 57.921 48.381 57.892 48.201 57.86 48.023 57.83 47.844L57.775 47.531 57.672 46.957 57.626 46.703C57.525 46.151 57.424 45.616 57.326 45.115L62.056 46.061A0.5 0.5 0 0 0 62.568 45.852L68.75 36.734C69.135 36.619 69.844 36.38 70.144 36.104 70.591 35.69 71.108 35.454 71.607 35.227 72.295 34.912 73.007 34.587 73.503 33.824 74.147 32.83 74.367 31.503 74.376 31.447A0.5 0.5 0 0 0 74.363 31.228L73.729 29.029A0.5 0.5 0 0 0 73.66 28.883L73.116 28.101C77.037 22.919 81.709 17.661 82.898 17.661A0.5 0.5 0 0 0 82.971 16.664M54.748 12.283L65.7 15.326C60.679 15.043 54.619 15.667 50.809 19.379zM43.552 28H42.487C42.215 28 41.766 26.762 41.63 25.346 42.264 23.597 46.015 22.519 48.001 22.127V22.865L49.269 23.865 48.599 25.641 47.629 27.553zM42.23 9.629C42.306 9.259 42.393 8.844 42.488 8.402L43.529 10.275A0.5 0.5 0 0 0 44.052 10.524 0.5 0.5 0 0 0 44.46 10.113C44.461 10.102 44.641 9.061 45.286 8.417 45.987 7.716 46.303 6.83 46.431 6.354 46.736 6.234 47.101 6.173 47.518 6.173 49.228 6.173 51.256 7.177 51.681 7.398L51.767 7.5 51.51 10.955C51.508 10.966 51.279 12.116 50.538 13.921 50.465 14.099 50.401 14.385 50.338 14.557 50.061 15.316 49.82 16 48.76 17H48.71C48.643 17 48.556 16.774 48.477 16.771 48.39 16.767 48.303 16.541 48.226 16.541 48.091 16.541 47.776 16.541 47.58 16.778 47.554 16.81 47.54 16.86 47.521 16.903L45.751 19.557 41.066 13.006C41.63 12.509 41.874 11.356 42.23 9.629M73.37 31.39C73.308 31.697 73.099 32.608 72.664 33.279 72.328 33.798 71.802 34.038 71.192 34.317 70.671 34.555 70.087 34.829 69.542 35.309L68.975 33.702C69.129 33.292 69.426 32.309 69.203 31.262 69.184 31.175 69.2 31.118 69.761 30.89 70.278 30.68 71.058 30.363 71.058 29.488 71.058 29.095 71.718 28.775 72.25 28.603L72.793 29.385zM72.277 27.553C71.684 27.7 70.056 28.218 70.056 29.487 70.056 29.658 69.879 29.76 69.382 29.963 68.872 30.171 68.02 30.518 68.223 31.47 68.439 32.48 67.991 33.467 67.986 33.476A0.5 0.5 0 0 0 67.967 33.854L68.627 35.724A9 9 0 0 1 68.306 35.822 0.5 0.5 0 0 0 68.025 36.023L61.928 45.017 56.816 43.995 39.964 38.728 45.954 28.743 48.273 28.489 49.51 26.046 50.46 23.535 49.52 22.793C54.527 12.929 72.058 17.131 73.877 17.599L74.031 17.642A0.5 0.5 0 0 0 74.518 17.514C74.553 17.479 74.915 17.175 76.914 17.175 78.342 17.175 80.038 17.328 81.247 17.461 78.35 19.652 73.676 25.702 72.277 27.553" fill="#000000" data-fill-palette-color="accent"></path></svg></g></svg></g></svg></g><defs></defs></svg><rect width="395.52" height="162.02198900536362" fill="none" stroke="none" visibility="hidden"></rect></g></svg></g></svg>